<mxfile host="app.diagrams.net" modified="2023-10-04T22:37:10.470Z" agent="Mozilla/5.0 (Macintosh; Intel Mac OS X 10_15_7) AppleWebKit/605.1.15 (KHTML, like Gecko) Version/17.0 Safari/605.1.15" etag="8Mif5E9z4k8oGnb1VpSq" version="22.0.2" type="github">
  <diagram id="R2lEEEUBdFMjLlhIrx00" name="Page-1">
    <mxGraphModel dx="984" dy="747" grid="1" gridSize="10" guides="1" tooltips="1" connect="1" arrows="1" fold="1" page="1" pageScale="1" pageWidth="850" pageHeight="1100" math="0" shadow="0" extFonts="Permanent Marker^https://fonts.googleapis.com/css?family=Permanent+Marker">
      <root>
        <mxCell id="0" />
        <mxCell id="1" parent="0" />
        <mxCell id="Ps89kauUc6YETz7Cp_ef-37" value="«Mr ED User Application»&lt;br&gt;&lt;b&gt;Component&lt;/b&gt;" style="html=1;dropTarget=0;whiteSpace=wrap;" vertex="1" parent="1">
          <mxGeometry x="630" y="420" width="180" height="90" as="geometry" />
        </mxCell>
        <mxCell id="Ps89kauUc6YETz7Cp_ef-38" value="" style="shape=module;jettyWidth=8;jettyHeight=4;" vertex="1" parent="Ps89kauUc6YETz7Cp_ef-37">
          <mxGeometry x="1" width="19" height="20" relative="1" as="geometry">
            <mxPoint x="-27" y="7" as="offset" />
          </mxGeometry>
        </mxCell>
        <mxCell id="Ps89kauUc6YETz7Cp_ef-1" value="" style="whiteSpace=wrap;html=1;aspect=fixed;" vertex="1" parent="1">
          <mxGeometry x="40" y="180" width="350" height="350" as="geometry" />
        </mxCell>
        <mxCell id="Ps89kauUc6YETz7Cp_ef-3" value="EDMap Webapp" style="text;html=1;strokeColor=none;fillColor=none;align=center;verticalAlign=middle;whiteSpace=wrap;rounded=0;" vertex="1" parent="1">
          <mxGeometry x="50" y="190" width="140" height="40" as="geometry" />
        </mxCell>
        <mxCell id="Ps89kauUc6YETz7Cp_ef-4" value="«EDMapData»&lt;br&gt;&lt;b&gt;Component&lt;/b&gt;" style="html=1;dropTarget=0;whiteSpace=wrap;" vertex="1" parent="1">
          <mxGeometry x="230" y="200" width="180" height="90" as="geometry" />
        </mxCell>
        <mxCell id="Ps89kauUc6YETz7Cp_ef-5" value="" style="shape=module;jettyWidth=8;jettyHeight=4;" vertex="1" parent="Ps89kauUc6YETz7Cp_ef-4">
          <mxGeometry x="1" width="19" height="20" relative="1" as="geometry">
            <mxPoint x="-27" y="7" as="offset" />
          </mxGeometry>
        </mxCell>
        <mxCell id="Ps89kauUc6YETz7Cp_ef-8" value="" style="edgeStyle=orthogonalEdgeStyle;rounded=0;orthogonalLoop=1;jettySize=auto;html=1;" edge="1" parent="1" source="Ps89kauUc6YETz7Cp_ef-6" target="Ps89kauUc6YETz7Cp_ef-7">
          <mxGeometry relative="1" as="geometry" />
        </mxCell>
        <mxCell id="Ps89kauUc6YETz7Cp_ef-6" value="" style="shape=datastore;whiteSpace=wrap;html=1;" vertex="1" parent="1">
          <mxGeometry x="630" y="110" width="190" height="160" as="geometry" />
        </mxCell>
        <mxCell id="Ps89kauUc6YETz7Cp_ef-9" value="" style="edgeStyle=orthogonalEdgeStyle;rounded=0;orthogonalLoop=1;jettySize=auto;html=1;" edge="1" parent="1" source="Ps89kauUc6YETz7Cp_ef-7" target="Ps89kauUc6YETz7Cp_ef-5">
          <mxGeometry relative="1" as="geometry" />
        </mxCell>
        <mxCell id="Ps89kauUc6YETz7Cp_ef-7" value="" style="shape=providedRequiredInterface;html=1;verticalLabelPosition=bottom;sketch=0;rotation=-180;" vertex="1" parent="1">
          <mxGeometry x="500" y="170" width="40" height="40" as="geometry" />
        </mxCell>
        <mxCell id="Ps89kauUc6YETz7Cp_ef-10" value="Emergency Department Coordinates" style="text;html=1;strokeColor=none;fillColor=none;align=center;verticalAlign=middle;whiteSpace=wrap;rounded=0;" vertex="1" parent="1">
          <mxGeometry x="485" y="120" width="70" height="40" as="geometry" />
        </mxCell>
        <mxCell id="Ps89kauUc6YETz7Cp_ef-26" style="edgeStyle=orthogonalEdgeStyle;rounded=0;orthogonalLoop=1;jettySize=auto;html=1;exitX=1;exitY=0.5;exitDx=0;exitDy=0;exitPerimeter=0;entryX=1;entryY=0.5;entryDx=0;entryDy=0;" edge="1" parent="1" source="Ps89kauUc6YETz7Cp_ef-11" target="Ps89kauUc6YETz7Cp_ef-19">
          <mxGeometry relative="1" as="geometry" />
        </mxCell>
        <mxCell id="Ps89kauUc6YETz7Cp_ef-11" value="" style="shape=providedRequiredInterface;html=1;verticalLabelPosition=bottom;sketch=0;rotation=-180;" vertex="1" parent="1">
          <mxGeometry x="500" y="315" width="40" height="40" as="geometry" />
        </mxCell>
        <mxCell id="Ps89kauUc6YETz7Cp_ef-12" value="" style="rounded=1;whiteSpace=wrap;html=1;" vertex="1" parent="1">
          <mxGeometry x="660" y="305" width="120" height="60" as="geometry" />
        </mxCell>
        <mxCell id="Ps89kauUc6YETz7Cp_ef-13" value="BC.gov" style="text;html=1;strokeColor=none;fillColor=none;align=center;verticalAlign=middle;whiteSpace=wrap;rounded=0;" vertex="1" parent="1">
          <mxGeometry x="690" y="190" width="60" height="30" as="geometry" />
        </mxCell>
        <mxCell id="Ps89kauUc6YETz7Cp_ef-15" value="Leaflet Map Library&amp;nbsp;" style="text;html=1;strokeColor=none;fillColor=none;align=center;verticalAlign=middle;whiteSpace=wrap;rounded=0;" vertex="1" parent="1">
          <mxGeometry x="690" y="320" width="60" height="30" as="geometry" />
        </mxCell>
        <mxCell id="Ps89kauUc6YETz7Cp_ef-16" style="edgeStyle=orthogonalEdgeStyle;rounded=0;orthogonalLoop=1;jettySize=auto;html=1;exitX=0;exitY=0.5;exitDx=0;exitDy=0;entryX=0;entryY=0.5;entryDx=0;entryDy=0;entryPerimeter=0;" edge="1" parent="1" source="Ps89kauUc6YETz7Cp_ef-12" target="Ps89kauUc6YETz7Cp_ef-11">
          <mxGeometry relative="1" as="geometry" />
        </mxCell>
        <mxCell id="Ps89kauUc6YETz7Cp_ef-18" value="«EDMapView»&lt;br&gt;&lt;b&gt;Component&lt;/b&gt;" style="html=1;dropTarget=0;whiteSpace=wrap;" vertex="1" parent="1">
          <mxGeometry x="230" y="311" width="180" height="90" as="geometry" />
        </mxCell>
        <mxCell id="Ps89kauUc6YETz7Cp_ef-19" value="" style="shape=module;jettyWidth=8;jettyHeight=4;" vertex="1" parent="Ps89kauUc6YETz7Cp_ef-18">
          <mxGeometry x="1" width="19" height="20" relative="1" as="geometry">
            <mxPoint x="-27" y="7" as="offset" />
          </mxGeometry>
        </mxCell>
        <mxCell id="Ps89kauUc6YETz7Cp_ef-25" style="edgeStyle=orthogonalEdgeStyle;rounded=0;orthogonalLoop=1;jettySize=auto;html=1;exitX=1;exitY=0.5;exitDx=0;exitDy=0;exitPerimeter=0;entryX=0.917;entryY=0.033;entryDx=0;entryDy=0;entryPerimeter=0;" edge="1" parent="1" source="Ps89kauUc6YETz7Cp_ef-23" target="Ps89kauUc6YETz7Cp_ef-37">
          <mxGeometry relative="1" as="geometry">
            <mxPoint x="660" y="429.25" as="targetPoint" />
          </mxGeometry>
        </mxCell>
        <mxCell id="Ps89kauUc6YETz7Cp_ef-23" value="" style="shape=providedRequiredInterface;html=1;verticalLabelPosition=bottom;sketch=0;rotation=-180;direction=west;" vertex="1" parent="1">
          <mxGeometry x="504" y="367" width="40" height="40" as="geometry" />
        </mxCell>
        <mxCell id="Ps89kauUc6YETz7Cp_ef-24" style="edgeStyle=orthogonalEdgeStyle;rounded=0;orthogonalLoop=1;jettySize=auto;html=1;exitX=0.5;exitY=1;exitDx=0;exitDy=0;entryX=0;entryY=0.5;entryDx=0;entryDy=0;entryPerimeter=0;" edge="1" parent="1" source="Ps89kauUc6YETz7Cp_ef-19" target="Ps89kauUc6YETz7Cp_ef-23">
          <mxGeometry relative="1" as="geometry" />
        </mxCell>
        <mxCell id="Ps89kauUc6YETz7Cp_ef-27" value="Map rendering Info" style="text;html=1;strokeColor=none;fillColor=none;align=center;verticalAlign=middle;whiteSpace=wrap;rounded=0;" vertex="1" parent="1">
          <mxGeometry x="495" y="275" width="60" height="30" as="geometry" />
        </mxCell>
        <mxCell id="Ps89kauUc6YETz7Cp_ef-28" value="Embedded interactive Map" style="text;html=1;strokeColor=none;fillColor=none;align=center;verticalAlign=middle;whiteSpace=wrap;rounded=0;" vertex="1" parent="1">
          <mxGeometry x="494" y="420" width="60" height="30" as="geometry" />
        </mxCell>
        <mxCell id="Ps89kauUc6YETz7Cp_ef-35" style="edgeStyle=orthogonalEdgeStyle;rounded=0;orthogonalLoop=1;jettySize=auto;html=1;exitX=1;exitY=0.5;exitDx=0;exitDy=0;exitPerimeter=0;entryX=1;entryY=0.5;entryDx=0;entryDy=0;" edge="1" parent="1" source="Ps89kauUc6YETz7Cp_ef-29" target="Ps89kauUc6YETz7Cp_ef-33">
          <mxGeometry relative="1" as="geometry" />
        </mxCell>
        <mxCell id="Ps89kauUc6YETz7Cp_ef-29" value="" style="shape=providedRequiredInterface;html=1;verticalLabelPosition=bottom;sketch=0;rotation=-180;" vertex="1" parent="1">
          <mxGeometry x="500" y="487" width="40" height="40" as="geometry" />
        </mxCell>
        <mxCell id="Ps89kauUc6YETz7Cp_ef-30" style="edgeStyle=orthogonalEdgeStyle;rounded=0;orthogonalLoop=1;jettySize=auto;html=1;exitX=0.5;exitY=1;exitDx=0;exitDy=0;entryX=0;entryY=0.5;entryDx=0;entryDy=0;entryPerimeter=0;" edge="1" parent="1" source="Ps89kauUc6YETz7Cp_ef-38" target="Ps89kauUc6YETz7Cp_ef-29">
          <mxGeometry relative="1" as="geometry">
            <mxPoint x="660" y="489.75" as="sourcePoint" />
            <Array as="points">
              <mxPoint x="820" y="447" />
              <mxPoint x="820" y="530" />
              <mxPoint x="585" y="530" />
              <mxPoint x="585" y="507" />
            </Array>
          </mxGeometry>
        </mxCell>
        <mxCell id="Ps89kauUc6YETz7Cp_ef-32" value="«EDMapURLHandler»&lt;br&gt;&lt;b&gt;Component&lt;/b&gt;" style="html=1;dropTarget=0;whiteSpace=wrap;" vertex="1" parent="1">
          <mxGeometry x="230" y="420" width="180" height="90" as="geometry" />
        </mxCell>
        <mxCell id="Ps89kauUc6YETz7Cp_ef-33" value="" style="shape=module;jettyWidth=8;jettyHeight=4;" vertex="1" parent="Ps89kauUc6YETz7Cp_ef-32">
          <mxGeometry x="1" width="19" height="20" relative="1" as="geometry">
            <mxPoint x="-27" y="7" as="offset" />
          </mxGeometry>
        </mxCell>
        <mxCell id="Ps89kauUc6YETz7Cp_ef-36" value="Provide User location" style="text;html=1;strokeColor=none;fillColor=none;align=center;verticalAlign=middle;whiteSpace=wrap;rounded=0;" vertex="1" parent="1">
          <mxGeometry x="494" y="540" width="60" height="30" as="geometry" />
        </mxCell>
      </root>
    </mxGraphModel>
  </diagram>
</mxfile>
